<svg width="194" height="209" viewBox="0 0 194 209" fill="none" xmlns="http://www.w3.org/2000/svg">
<path d="M9.15015 175.785H188.815" stroke="#263238" stroke-linecap="round" stroke-linejoin="round"/>
<path d="M9.15015 180.398H188.815" stroke="#263238" stroke-linecap="round" stroke-linejoin="round"/>
<path d="M21.9619 98.4599H11.6586C10.6687 98.4599 9.86621 99.3586 9.86621 100.467V112.006C9.86621 113.115 10.6687 114.013 11.6586 114.013H21.9619C22.9519 114.013 23.7544 113.115 23.7544 112.006V100.467C23.7544 99.3586 22.9519 98.4599 21.9619 98.4599Z" stroke="#263238" stroke-linecap="round" stroke-linejoin="round"/>
<path d="M37.0264 98.4599H26.7231C25.7332 98.4599 24.9307 99.3586 24.9307 100.467V112.006C24.9307 113.115 25.7332 114.013 26.7231 114.013H37.0264C38.0163 114.013 38.8188 113.115 38.8188 112.006V100.467C38.8188 99.3586 38.0163 98.4599 37.0264 98.4599Z" stroke="#263238" stroke-linecap="round" stroke-linejoin="round"/>
<path d="M52.0905 98.4599H41.7873C40.7974 98.4599 39.9949 99.3586 39.9949 100.467V112.006C39.9949 113.115 40.7974 114.013 41.7873 114.013H52.0905C53.0805 114.013 53.883 113.115 53.883 112.006V100.467C53.883 99.3586 53.0805 98.4599 52.0905 98.4599Z" stroke="#263238" stroke-linecap="round" stroke-linejoin="round"/>
<path d="M67.1504 98.4599H56.8471C55.8572 98.4599 55.0547 99.3586 55.0547 100.467V112.006C55.0547 113.115 55.8572 114.013 56.8471 114.013H67.1504C68.1404 114.013 68.9428 113.115 68.9428 112.006V100.467C68.9428 99.3586 68.1404 98.4599 67.1504 98.4599Z" stroke="#263238" stroke-linecap="round" stroke-linejoin="round"/>
<path d="M82.2148 98.4599H71.9116C70.9216 98.4599 70.1191 99.3586 70.1191 100.467V112.006C70.1191 113.115 70.9216 114.013 71.9116 114.013H82.2148C83.2048 114.013 84.0073 113.115 84.0073 112.006V100.467C84.0073 99.3586 83.2048 98.4599 82.2148 98.4599Z" stroke="#263238" stroke-linecap="round" stroke-linejoin="round"/>
<path d="M97.2791 98.4599H86.9758C85.9858 98.4599 85.1833 99.3586 85.1833 100.467V112.006C85.1833 113.115 85.9858 114.013 86.9758 114.013H97.2791C98.269 114.013 99.0715 113.115 99.0715 112.006V100.467C99.0715 99.3586 98.269 98.4599 97.2791 98.4599Z" stroke="#263238" stroke-linecap="round" stroke-linejoin="round"/>
<path d="M112.339 98.4599H102.036C101.046 98.4599 100.243 99.3586 100.243 100.467V112.006C100.243 113.115 101.046 114.013 102.036 114.013H112.339C113.329 114.013 114.132 113.115 114.132 112.006V100.467C114.132 99.3586 113.329 98.4599 112.339 98.4599Z" stroke="#263238" stroke-linecap="round" stroke-linejoin="round"/>
<path d="M127.403 98.4599H117.1C116.11 98.4599 115.308 99.3586 115.308 100.467V112.006C115.308 113.115 116.11 114.013 117.1 114.013H127.403C128.393 114.013 129.196 113.115 129.196 112.006V100.467C129.196 99.3586 128.393 98.4599 127.403 98.4599Z" stroke="#263238" stroke-linecap="round" stroke-linejoin="round"/>
<path d="M142.468 98.4599H132.164C131.174 98.4599 130.372 99.3586 130.372 100.467V112.006C130.372 113.115 131.174 114.013 132.164 114.013H142.468C143.457 114.013 144.26 113.115 144.26 112.006V100.467C144.26 99.3586 143.457 98.4599 142.468 98.4599Z" stroke="#263238" stroke-linecap="round" stroke-linejoin="round"/>
<path d="M157.528 98.4599H147.224C146.234 98.4599 145.432 99.3586 145.432 100.467V112.006C145.432 113.115 146.234 114.013 147.224 114.013H157.528C158.518 114.013 159.32 113.115 159.32 112.006V100.467C159.32 99.3586 158.518 98.4599 157.528 98.4599Z" stroke="#263238" stroke-linecap="round" stroke-linejoin="round"/>
<path d="M172.592 98.4599H162.289C161.299 98.4599 160.496 99.3586 160.496 100.467V112.006C160.496 113.115 161.299 114.013 162.289 114.013H172.592C173.582 114.013 174.384 113.115 174.384 112.006V100.467C174.384 99.3586 173.582 98.4599 172.592 98.4599Z" stroke="#263238" stroke-linecap="round" stroke-linejoin="round"/>
<path d="M187.656 98.4599H177.353C176.363 98.4599 175.561 99.3586 175.561 100.467V112.006C175.561 113.115 176.363 114.013 177.353 114.013H187.656C188.646 114.013 189.449 113.115 189.449 112.006V100.467C189.449 99.3586 188.646 98.4599 187.656 98.4599Z" stroke="#263238" stroke-linecap="round" stroke-linejoin="round"/>
<path d="M21.9619 115.083H11.6586C10.6687 115.083 9.86621 115.981 9.86621 117.09V128.629C9.86621 129.737 10.6687 130.636 11.6586 130.636H21.9619C22.9519 130.636 23.7544 129.737 23.7544 128.629V117.09C23.7544 115.981 22.9519 115.083 21.9619 115.083Z" stroke="#263238" stroke-linecap="round" stroke-linejoin="round"/>
<path d="M37.0264 115.083H26.7231C25.7332 115.083 24.9307 115.981 24.9307 117.09V128.629C24.9307 129.737 25.7332 130.636 26.7231 130.636H37.0264C38.0163 130.636 38.8188 129.737 38.8188 128.629V117.09C38.8188 115.981 38.0163 115.083 37.0264 115.083Z" stroke="#263238" stroke-linecap="round" stroke-linejoin="round"/>
<path d="M52.0905 115.083H41.7873C40.7974 115.083 39.9949 115.981 39.9949 117.09V128.629C39.9949 129.737 40.7974 130.636 41.7873 130.636H52.0905C53.0805 130.636 53.883 129.737 53.883 128.629V117.09C53.883 115.981 53.0805 115.083 52.0905 115.083Z" stroke="#263238" stroke-linecap="round" stroke-linejoin="round"/>
<path d="M67.1504 115.083H56.8471C55.8572 115.083 55.0547 115.981 55.0547 117.09V128.629C55.0547 129.737 55.8572 130.636 56.8471 130.636H67.1504C68.1404 130.636 68.9428 129.737 68.9428 128.629V117.09C68.9428 115.981 68.1404 115.083 67.1504 115.083Z" stroke="#263238" stroke-linecap="round" stroke-linejoin="round"/>
<path d="M82.2148 115.083H71.9116C70.9216 115.083 70.1191 115.981 70.1191 117.09V128.629C70.1191 129.737 70.9216 130.636 71.9116 130.636H82.2148C83.2048 130.636 84.0073 129.737 84.0073 128.629V117.09C84.0073 115.981 83.2048 115.083 82.2148 115.083Z" stroke="#263238" stroke-linecap="round" stroke-linejoin="round"/>
<path d="M97.2791 115.083H86.9758C85.9858 115.083 85.1833 115.981 85.1833 117.09V128.629C85.1833 129.737 85.9858 130.636 86.9758 130.636H97.2791C98.269 130.636 99.0715 129.737 99.0715 128.629V117.09C99.0715 115.981 98.269 115.083 97.2791 115.083Z" stroke="#263238" stroke-linecap="round" stroke-linejoin="round"/>
<path d="M112.339 115.083H102.036C101.046 115.083 100.243 115.981 100.243 117.09V128.629C100.243 129.737 101.046 130.636 102.036 130.636H112.339C113.329 130.636 114.132 129.737 114.132 128.629V117.09C114.132 115.981 113.329 115.083 112.339 115.083Z" stroke="#263238" stroke-linecap="round" stroke-linejoin="round"/>
<path d="M127.403 115.083H117.1C116.11 115.083 115.308 115.981 115.308 117.09V128.629C115.308 129.737 116.11 130.636 117.1 130.636H127.403C128.393 130.636 129.196 129.737 129.196 128.629V117.09C129.196 115.981 128.393 115.083 127.403 115.083Z" stroke="#263238" stroke-linecap="round" stroke-linejoin="round"/>
<path d="M142.468 115.083H132.164C131.174 115.083 130.372 115.981 130.372 117.09V128.629C130.372 129.737 131.174 130.636 132.164 130.636H142.468C143.457 130.636 144.26 129.737 144.26 128.629V117.09C144.26 115.981 143.457 115.083 142.468 115.083Z" stroke="#263238" stroke-linecap="round" stroke-linejoin="round"/>
<path d="M157.528 115.083H147.224C146.234 115.083 145.432 115.981 145.432 117.09V128.629C145.432 129.737 146.234 130.636 147.224 130.636H157.528C158.518 130.636 159.32 129.737 159.32 128.629V117.09C159.32 115.981 158.518 115.083 157.528 115.083Z" stroke="#263238" stroke-linecap="round" stroke-linejoin="round"/>
<path d="M172.592 115.083H162.289C161.299 115.083 160.496 115.981 160.496 117.09V128.629C160.496 129.737 161.299 130.636 162.289 130.636H172.592C173.582 130.636 174.384 129.737 174.384 128.629V117.09C174.384 115.981 173.582 115.083 172.592 115.083Z" stroke="#263238" stroke-linecap="round" stroke-linejoin="round"/>
<path d="M187.656 115.083H177.353C176.363 115.083 175.561 115.981 175.561 117.09V128.629C175.561 129.737 176.363 130.636 177.353 130.636H187.656C188.646 130.636 189.449 129.737 189.449 128.629V117.09C189.449 115.981 188.646 115.083 187.656 115.083Z" stroke="#263238" stroke-linecap="round" stroke-linejoin="round"/>
<path d="M21.9619 131.705H11.6586C10.6687 131.705 9.86621 132.604 9.86621 133.713V145.252C9.86621 146.36 10.6687 147.259 11.6586 147.259H21.9619C22.9519 147.259 23.7544 146.36 23.7544 145.252V133.713C23.7544 132.604 22.9519 131.705 21.9619 131.705Z" stroke="#263238" stroke-linecap="round" stroke-linejoin="round"/>
<path d="M37.0264 131.705H26.7231C25.7332 131.705 24.9307 132.604 24.9307 133.713V145.252C24.9307 146.36 25.7332 147.259 26.7231 147.259H37.0264C38.0163 147.259 38.8188 146.36 38.8188 145.252V133.713C38.8188 132.604 38.0163 131.705 37.0264 131.705Z" stroke="#263238" stroke-linecap="round" stroke-linejoin="round"/>
<path d="M52.0905 131.705H41.7873C40.7974 131.705 39.9949 132.604 39.9949 133.713V145.252C39.9949 146.36 40.7974 147.259 41.7873 147.259H52.0905C53.0805 147.259 53.883 146.36 53.883 145.252V133.713C53.883 132.604 53.0805 131.705 52.0905 131.705Z" stroke="#263238" stroke-linecap="round" stroke-linejoin="round"/>
<path d="M67.1504 131.705H56.8471C55.8572 131.705 55.0547 132.604 55.0547 133.713V145.252C55.0547 146.36 55.8572 147.259 56.8471 147.259H67.1504C68.1404 147.259 68.9428 146.36 68.9428 145.252V133.713C68.9428 132.604 68.1404 131.705 67.1504 131.705Z" stroke="#263238" stroke-linecap="round" stroke-linejoin="round"/>
<path d="M82.2148 131.705H71.9116C70.9216 131.705 70.1191 132.604 70.1191 133.713V145.252C70.1191 146.36 70.9216 147.259 71.9116 147.259H82.2148C83.2048 147.259 84.0073 146.36 84.0073 145.252V133.713C84.0073 132.604 83.2048 131.705 82.2148 131.705Z" stroke="#263238" stroke-linecap="round" stroke-linejoin="round"/>
<path d="M97.2791 131.705H86.9758C85.9858 131.705 85.1833 132.604 85.1833 133.713V145.252C85.1833 146.36 85.9858 147.259 86.9758 147.259H97.2791C98.269 147.259 99.0715 146.36 99.0715 145.252V133.713C99.0715 132.604 98.269 131.705 97.2791 131.705Z" stroke="#263238" stroke-linecap="round" stroke-linejoin="round"/>
<path d="M112.339 131.705H102.036C101.046 131.705 100.243 132.604 100.243 133.713V145.252C100.243 146.36 101.046 147.259 102.036 147.259H112.339C113.329 147.259 114.132 146.36 114.132 145.252V133.713C114.132 132.604 113.329 131.705 112.339 131.705Z" stroke="#263238" stroke-linecap="round" stroke-linejoin="round"/>
<path d="M127.403 131.705H117.1C116.11 131.705 115.308 132.604 115.308 133.713V145.252C115.308 146.36 116.11 147.259 117.1 147.259H127.403C128.393 147.259 129.196 146.36 129.196 145.252V133.713C129.196 132.604 128.393 131.705 127.403 131.705Z" stroke="#263238" stroke-linecap="round" stroke-linejoin="round"/>
<path d="M142.468 131.705H132.164C131.174 131.705 130.372 132.604 130.372 133.713V145.252C130.372 146.36 131.174 147.259 132.164 147.259H142.468C143.457 147.259 144.26 146.36 144.26 145.252V133.713C144.26 132.604 143.457 131.705 142.468 131.705Z" stroke="#263238" stroke-linecap="round" stroke-linejoin="round"/>
<path d="M157.528 131.705H147.224C146.234 131.705 145.432 132.604 145.432 133.713V145.252C145.432 146.36 146.234 147.259 147.224 147.259H157.528C158.518 147.259 159.32 146.36 159.32 145.252V133.713C159.32 132.604 158.518 131.705 157.528 131.705Z" stroke="#263238" stroke-linecap="round" stroke-linejoin="round"/>
<path d="M172.592 131.705H162.289C161.299 131.705 160.496 132.604 160.496 133.713V145.252C160.496 146.36 161.299 147.259 162.289 147.259H172.592C173.582 147.259 174.384 146.36 174.384 145.252V133.713C174.384 132.604 173.582 131.705 172.592 131.705Z" stroke="#263238" stroke-linecap="round" stroke-linejoin="round"/>
<path d="M187.656 131.705H177.353C176.363 131.705 175.561 132.604 175.561 133.713V145.252C175.561 146.36 176.363 147.259 177.353 147.259H187.656C188.646 147.259 189.449 146.36 189.449 145.252V133.713C189.449 132.604 188.646 131.705 187.656 131.705Z" stroke="#263238" stroke-linecap="round" stroke-linejoin="round"/>
<path d="M21.9619 148.328H11.6586C10.6687 148.328 9.86621 149.227 9.86621 150.336V161.874C9.86621 162.983 10.6687 163.882 11.6586 163.882H21.9619C22.9519 163.882 23.7544 162.983 23.7544 161.874V150.336C23.7544 149.227 22.9519 148.328 21.9619 148.328Z" stroke="#263238" stroke-linecap="round" stroke-linejoin="round"/>
<path d="M37.0264 148.328H26.7231C25.7332 148.328 24.9307 149.227 24.9307 150.336V161.874C24.9307 162.983 25.7332 163.882 26.7231 163.882H37.0264C38.0163 163.882 38.8188 162.983 38.8188 161.874V150.336C38.8188 149.227 38.0163 148.328 37.0264 148.328Z" stroke="#263238" stroke-linecap="round" stroke-linejoin="round"/>
<path d="M52.0905 148.328H41.7873C40.7974 148.328 39.9949 149.227 39.9949 150.336V161.874C39.9949 162.983 40.7974 163.882 41.7873 163.882H52.0905C53.0805 163.882 53.883 162.983 53.883 161.874V150.336C53.883 149.227 53.0805 148.328 52.0905 148.328Z" stroke="#263238" stroke-linecap="round" stroke-linejoin="round"/>
<path d="M67.1504 148.328H56.8471C55.8572 148.328 55.0547 149.227 55.0547 150.336V161.874C55.0547 162.983 55.8572 163.882 56.8471 163.882H67.1504C68.1404 163.882 68.9428 162.983 68.9428 161.874V150.336C68.9428 149.227 68.1404 148.328 67.1504 148.328Z" stroke="#263238" stroke-linecap="round" stroke-linejoin="round"/>
<path d="M82.2148 148.328H71.9116C70.9216 148.328 70.1191 149.227 70.1191 150.336V161.874C70.1191 162.983 70.9216 163.882 71.9116 163.882H82.2148C83.2048 163.882 84.0073 162.983 84.0073 161.874V150.336C84.0073 149.227 83.2048 148.328 82.2148 148.328Z" stroke="#263238" stroke-linecap="round" stroke-linejoin="round"/>
<path d="M97.2791 148.328H86.9758C85.9858 148.328 85.1833 149.227 85.1833 150.336V161.874C85.1833 162.983 85.9858 163.882 86.9758 163.882H97.2791C98.269 163.882 99.0715 162.983 99.0715 161.874V150.336C99.0715 149.227 98.269 148.328 97.2791 148.328Z" stroke="#263238" stroke-linecap="round" stroke-linejoin="round"/>
<path d="M112.339 148.328H102.036C101.046 148.328 100.243 149.227 100.243 150.336V161.874C100.243 162.983 101.046 163.882 102.036 163.882H112.339C113.329 163.882 114.132 162.983 114.132 161.874V150.336C114.132 149.227 113.329 148.328 112.339 148.328Z" stroke="#263238" stroke-linecap="round" stroke-linejoin="round"/>
<path d="M127.403 148.328H117.1C116.11 148.328 115.308 149.227 115.308 150.336V161.874C115.308 162.983 116.11 163.882 117.1 163.882H127.403C128.393 163.882 129.196 162.983 129.196 161.874V150.336C129.196 149.227 128.393 148.328 127.403 148.328Z" stroke="#263238" stroke-linecap="round" stroke-linejoin="round"/>
<path d="M142.468 148.328H132.164C131.174 148.328 130.372 149.227 130.372 150.336V161.874C130.372 162.983 131.174 163.882 132.164 163.882H142.468C143.457 163.882 144.26 162.983 144.26 161.874V150.336C144.26 149.227 143.457 148.328 142.468 148.328Z" stroke="#263238" stroke-linecap="round" stroke-linejoin="round"/>
<path d="M157.528 148.328H147.224C146.234 148.328 145.432 149.227 145.432 150.336V161.874C145.432 162.983 146.234 163.882 147.224 163.882H157.528C158.518 163.882 159.32 162.983 159.32 161.874V150.336C159.32 149.227 158.518 148.328 157.528 148.328Z" stroke="#263238" stroke-linecap="round" stroke-linejoin="round"/>
<path d="M172.592 148.328H162.289C161.299 148.328 160.496 149.227 160.496 150.336V161.874C160.496 162.983 161.299 163.882 162.289 163.882H172.592C173.582 163.882 174.384 162.983 174.384 161.874V150.336C174.384 149.227 173.582 148.328 172.592 148.328Z" stroke="#263238" stroke-linecap="round" stroke-linejoin="round"/>
<path d="M187.656 148.328H177.353C176.363 148.328 175.561 149.227 175.561 150.336V161.874C175.561 162.983 176.363 163.882 177.353 163.882H187.656C188.646 163.882 189.449 162.983 189.449 161.874V150.336C189.449 149.227 188.646 148.328 187.656 148.328Z" stroke="#263238" stroke-linecap="round" stroke-linejoin="round"/>
<path d="M41.0061 91.3199V16.318" stroke="#263238" stroke-linecap="round" stroke-linejoin="round"/>
<path d="M45.4503 70.6872H43.0676V86.2212H45.4503V70.6872Z" fill="#263238" stroke="#263238" stroke-linecap="round" stroke-linejoin="round"/>
<path d="M38.9488 70.6872H36.5662V86.2212H38.9488V70.6872Z" fill="#263238" stroke="#263238" stroke-linecap="round" stroke-linejoin="round"/>
<path d="M9.15015 91.3199H188.815" stroke="#263238" stroke-width="2" stroke-linecap="round" stroke-linejoin="round"/>
<path d="M148.071 91.3199V16.318" stroke="#263238" stroke-linecap="round" stroke-linejoin="round"/>
<path d="M146.552 70.6872H144.169V86.2212H146.552V70.6872Z" fill="#263238" stroke="#263238" stroke-linecap="round" stroke-linejoin="round"/>
<path d="M152.298 70.6872H149.915V86.2212H152.298V70.6872Z" fill="#263238" stroke="#263238" stroke-linecap="round" stroke-linejoin="round"/>
<path d="M43.432 154.802H48.7659C49.2368 154.802 49.6882 155.012 50.0211 155.385C50.354 155.757 50.541 156.263 50.541 156.79V175.542H41.657V156.79C41.657 156.263 41.844 155.757 42.1769 155.385C42.5098 155.012 42.9613 154.802 43.432 154.802Z" fill="white" stroke="#263238" stroke-linecap="round" stroke-linejoin="round"/>
<path d="M43.432 154.802H48.7659C49.2368 154.802 49.6882 155.012 50.0211 155.385C50.354 155.757 50.541 156.263 50.541 156.79V160.222H41.657V156.79C41.657 156.263 41.844 155.757 42.1769 155.385C42.5098 155.012 42.9613 154.802 43.432 154.802Z" fill="white" stroke="#263238" stroke-linecap="round" stroke-linejoin="round"/>
<path d="M43.5232 161V173.515" stroke="#263238" stroke-linecap="round" stroke-linejoin="round"/>
<path d="M46.3398 161V173.515" stroke="#263238" stroke-linecap="round" stroke-linejoin="round"/>
<path d="M186.159 148.843H143.796C143.045 148.843 142.437 149.524 142.437 150.365V174.264C142.437 175.104 143.045 175.785 143.796 175.785H186.159C186.909 175.785 187.517 175.104 187.517 174.264V150.365C187.517 149.524 186.909 148.843 186.159 148.843Z" fill="white" stroke="#263238" stroke-linecap="round" stroke-linejoin="round"/>
<path d="M185.781 150.54H176.463V156.124H185.781V150.54Z" fill="#696969" stroke="#263238" stroke-linecap="round" stroke-linejoin="round"/>
<path d="M178.59 161.349C178.59 161.614 178.52 161.872 178.389 162.092C178.258 162.312 178.071 162.483 177.853 162.584C177.635 162.686 177.395 162.712 177.164 162.66C176.932 162.609 176.719 162.481 176.553 162.295C176.386 162.108 176.272 161.87 176.226 161.61C176.18 161.351 176.203 161.082 176.294 160.838C176.384 160.594 176.537 160.385 176.733 160.238C176.93 160.091 177.16 160.013 177.396 160.013C177.713 160.013 178.017 160.154 178.24 160.404C178.464 160.655 178.59 160.995 178.59 161.349Z" fill="white" stroke="#263238" stroke-linecap="round" stroke-linejoin="round"/>
<path d="M181.19 162.681C181.849 162.681 182.383 162.083 182.383 161.345C182.383 160.606 181.849 160.008 181.19 160.008C180.53 160.008 179.996 160.606 179.996 161.345C179.996 162.083 180.53 162.681 181.19 162.681Z" fill="white" stroke="#263238" stroke-linecap="round" stroke-linejoin="round"/>
<path d="M184.983 162.681C185.642 162.681 186.176 162.083 186.176 161.345C186.176 160.606 185.642 160.008 184.983 160.008C184.323 160.008 183.789 160.606 183.789 161.345C183.789 162.083 184.323 162.681 184.983 162.681Z" fill="white" stroke="#263238" stroke-linecap="round" stroke-linejoin="round"/>
<path d="M178.59 166.438C178.591 166.703 178.521 166.962 178.391 167.183C178.26 167.403 178.074 167.575 177.856 167.677C177.638 167.779 177.398 167.806 177.166 167.755C176.934 167.704 176.721 167.577 176.554 167.39C176.387 167.203 176.273 166.965 176.226 166.706C176.18 166.446 176.203 166.177 176.293 165.933C176.383 165.688 176.536 165.479 176.733 165.332C176.929 165.185 177.16 165.107 177.396 165.107C177.712 165.107 178.015 165.247 178.239 165.496C178.463 165.746 178.588 166.085 178.59 166.438Z" fill="white" stroke="#263238" stroke-linecap="round" stroke-linejoin="round"/>
<path d="M182.379 166.438C182.38 166.703 182.31 166.962 182.179 167.183C182.048 167.403 181.862 167.575 181.644 167.677C181.426 167.779 181.185 167.806 180.953 167.755C180.722 167.703 180.509 167.576 180.341 167.389C180.174 167.201 180.06 166.962 180.014 166.703C179.969 166.443 179.993 166.174 180.083 165.929C180.174 165.685 180.328 165.476 180.525 165.33C180.722 165.183 180.953 165.106 181.19 165.107C181.505 165.108 181.806 165.249 182.029 165.498C182.252 165.748 182.377 166.085 182.379 166.438Z" fill="white" stroke="#263238" stroke-linecap="round" stroke-linejoin="round"/>
<path d="M186.172 166.438C186.173 166.703 186.103 166.962 185.973 167.183C185.842 167.403 185.655 167.575 185.437 167.677C185.219 167.779 184.978 167.806 184.747 167.755C184.515 167.703 184.302 167.576 184.135 167.389C183.967 167.201 183.853 166.962 183.807 166.703C183.762 166.443 183.786 166.174 183.876 165.929C183.968 165.685 184.121 165.476 184.318 165.33C184.515 165.183 184.746 165.106 184.983 165.107C185.298 165.108 185.599 165.249 185.823 165.498C186.045 165.748 186.171 166.085 186.172 166.438Z" fill="white" stroke="#263238" stroke-linecap="round" stroke-linejoin="round"/>
<path d="M178.59 171.556C178.59 171.821 178.52 172.079 178.389 172.299C178.258 172.519 178.071 172.69 177.853 172.791C177.635 172.893 177.395 172.919 177.164 172.867C176.932 172.816 176.719 172.688 176.553 172.502C176.386 172.315 176.272 172.076 176.226 171.817C176.18 171.558 176.203 171.289 176.294 171.045C176.384 170.801 176.537 170.592 176.733 170.445C176.93 170.298 177.16 170.22 177.396 170.22C177.713 170.22 178.017 170.361 178.24 170.611C178.464 170.862 178.59 171.202 178.59 171.556Z" fill="white" stroke="#263238" stroke-linecap="round" stroke-linejoin="round"/>
<path d="M182.379 171.556C182.379 171.821 182.309 172.079 182.177 172.3C182.046 172.519 181.859 172.691 181.641 172.792C181.422 172.893 181.182 172.919 180.951 172.867C180.719 172.815 180.506 172.687 180.34 172.5C180.173 172.312 180.06 172.074 180.014 171.814C179.969 171.554 179.993 171.286 180.084 171.042C180.175 170.797 180.328 170.589 180.525 170.443C180.722 170.297 180.953 170.219 181.189 170.22C181.505 170.221 181.808 170.363 182.03 170.613C182.254 170.863 182.379 171.203 182.379 171.556Z" fill="white" stroke="#263238" stroke-linecap="round" stroke-linejoin="round"/>
<path d="M186.172 171.556C186.172 171.821 186.102 172.079 185.97 172.3C185.839 172.519 185.652 172.691 185.434 172.792C185.216 172.893 184.976 172.919 184.744 172.867C184.512 172.815 184.299 172.687 184.133 172.5C183.966 172.312 183.853 172.074 183.807 171.814C183.762 171.554 183.786 171.286 183.877 171.042C183.968 170.797 184.122 170.589 184.319 170.443C184.515 170.297 184.747 170.219 184.983 170.22C185.299 170.221 185.601 170.363 185.824 170.613C186.047 170.863 186.172 171.203 186.172 171.556Z" fill="white" stroke="#263238" stroke-linecap="round" stroke-linejoin="round"/>
<path d="M172.791 162.069C172.791 168.572 172.357 173.841 171.815 173.841C171.272 173.841 170.843 168.572 170.843 162.069C170.843 155.565 171.277 150.297 171.815 150.297C172.353 150.297 172.791 155.57 172.791 162.069Z" fill="#696969" stroke="#263238" stroke-linecap="round" stroke-linejoin="round"/>
<path d="M167.006 151.322C166.377 151.288 165.739 151.269 165.097 151.269C153.899 151.269 144.824 156.27 144.824 162.448C144.824 168.626 153.899 173.627 165.097 173.627C165.739 173.627 166.399 173.627 167.006 173.578V151.322Z" fill="#696969" stroke="#263238" stroke-linecap="round" stroke-linejoin="round"/>
<path d="M30.3904 151.512H19.9873V155.152H30.3904V151.512Z" fill="#263238" stroke="#263238" stroke-linecap="round" stroke-linejoin="round"/>
<path d="M16.2679 154.18H34.3224L38.1894 170.793H12.4009L16.2679 154.18Z" fill="white" stroke="#263238" stroke-linecap="round" stroke-linejoin="round"/>
<path d="M38.1894 170.667H12.4009V175.78H38.1894V170.667Z" fill="#263238" stroke="#263238" stroke-linecap="round" stroke-linejoin="round"/>
<path d="M34.4093 154.545L34.3225 154.166H16.268L16.1812 154.545C17.4832 161.106 21.0724 165.816 25.2952 165.816C29.5181 165.816 33.103 161.121 34.4093 154.545Z" fill="#696969" stroke="#263238" stroke-linecap="round" stroke-linejoin="round"/>
<path d="M20.8552 166.317H19.3362V169.471H20.8552V166.317Z" fill="white" stroke="#263238" stroke-linecap="round" stroke-linejoin="round"/>
<path d="M24.323 166.317H22.804V169.471H24.323V166.317Z" fill="white" stroke="#263238" stroke-linecap="round" stroke-linejoin="round"/>
<path d="M27.7907 166.317H26.2717V169.471H27.7907V166.317Z" fill="white" stroke="#263238" stroke-linecap="round" stroke-linejoin="round"/>
<path d="M31.2583 166.317H29.7393V169.471H31.2583V166.317Z" fill="white" stroke="#263238" stroke-linecap="round" stroke-linejoin="round"/>
<path d="M83.8205 26.7632C83.8205 26.7632 74.5198 30.287 72.2934 36.5959C70.0669 42.9048 75.7003 47.0119 77.2714 48.0374C78.8425 49.063 80.023 54.356 78.7123 61.0926C77.4016 67.8293 73.4739 70.3275 70.7223 70.0456C67.9707 69.7637 67.4456 69.4575 67.4456 69.4575C67.4456 69.4575 67.8405 77.3801 74.7846 80.899C81.7286 84.418 84.7537 83.096 84.7537 83.096C84.7537 83.096 96.6714 87.2031 102.7 86.0123C108.728 84.8214 111.597 82.8092 111.597 82.8092C111.597 82.8092 114.874 84.4229 119.591 81.633C124.309 78.8431 126.01 74.5902 126.01 74.5902C126.01 74.5902 119.196 74.4443 120.767 66.5218C122.338 58.5992 122.733 43.3422 115.125 34.0976C107.517 24.853 93.0041 20.0169 83.8205 26.7632Z" fill="#263238"/>
<mask id="mask0_215_1579" style="mask-type:luminance" maskUnits="userSpaceOnUse" x="67" y="23" width="60" height="64">
<path d="M83.8205 26.7632C83.8205 26.7632 74.5198 30.287 72.2934 36.5959C70.0669 42.9048 75.7003 47.0119 77.2714 48.0374C78.8425 49.063 80.023 54.356 78.7123 61.0926C77.4016 67.8293 73.4739 70.3275 70.7223 70.0456C67.9707 69.7637 67.4456 69.4575 67.4456 69.4575C67.4456 69.4575 67.8405 77.3801 74.7846 80.899C81.7286 84.418 84.7537 83.096 84.7537 83.096C84.7537 83.096 96.6714 87.2031 102.7 86.0123C108.728 84.8214 111.597 82.8092 111.597 82.8092C111.597 82.8092 114.874 84.4229 119.591 81.633C124.309 78.8431 126.01 74.5902 126.01 74.5902C126.01 74.5902 119.196 74.4443 120.767 66.5218C122.338 58.5992 122.733 43.3422 115.125 34.0976C107.517 24.853 93.0041 20.0169 83.8205 26.7632Z" fill="white"/>
</mask>
<g mask="url(#mask0_215_1579)">
<path d="M93.2427 30.4474C93.2427 30.4474 97.1487 45.5732 105.395 50.6135C113.641 55.6538 119.283 61.7925 119.283 67.2703C119.283 72.748 119.478 81.0837 128.479 77.5745" stroke="#6E6E6E" stroke-linecap="round" stroke-linejoin="round"/>
<path d="M95.7859 27.1569C95.7859 27.1569 106.749 30.8849 112.226 39.8718C117.703 48.8588 115.937 53.243 118.107 58.3076C120.277 63.3722 123.393 63.3528 123.393 63.3528" stroke="#6E6E6E" stroke-linecap="round" stroke-linejoin="round"/>
<path d="M94.6143 28.6928C94.6143 28.6928 104.006 33.9518 107.53 41.8452" stroke="#6E6E6E" stroke-linecap="round" stroke-linejoin="round"/>
<path d="M89.8966 33.9518C89.8966 33.9518 89.1154 26.9382 95.5734 26.0633" stroke="#6E6E6E" stroke-linecap="round" stroke-linejoin="round"/>
<path d="M76.9978 46.0106C76.9978 46.0106 70.7351 42.7201 74.2549 37.4611C77.7747 32.202 88.5423 32.6395 88.5423 32.6395" stroke="#6E6E6E" stroke-linecap="round" stroke-linejoin="round"/>
<path d="M87.3705 37.2423C87.3705 37.2423 76.8025 40.9703 76.6072 41.8452C76.4119 42.7201 77.779 42.7201 77.779 42.7201" stroke="#6E6E6E" stroke-linecap="round" stroke-linejoin="round"/>
<path d="M91.2853 28.2554C91.2853 28.2554 89.9138 26.282 84.0417 27.5992" stroke="#6E6E6E" stroke-linecap="round" stroke-linejoin="round"/>
<path d="M68.1963 76.9183C68.1963 76.9183 78.3737 79.3485 82.4837 65.5205" stroke="#6E6E6E" stroke-linecap="round" stroke-linejoin="round"/>
<path d="M75.6265 82.6099C75.6265 82.6099 83.2606 82.6099 85.218 73.4042" stroke="#6E6E6E" stroke-linecap="round" stroke-linejoin="round"/>
<path d="M109.683 67.7126C109.683 67.7126 108.311 83.932 117.495 85.6963" stroke="#6E6E6E" stroke-linecap="round" stroke-linejoin="round"/>
</g>
<path d="M83.8205 26.7632C83.8205 26.7632 74.5198 30.287 72.2934 36.5959C70.0669 42.9048 75.7003 47.0119 77.2714 48.0374C78.8425 49.063 80.023 54.356 78.7123 61.0926C77.4016 67.8293 73.4739 70.3275 70.7223 70.0456C67.9707 69.7637 67.4456 69.4575 67.4456 69.4575C67.4456 69.4575 67.8405 77.3801 74.7846 80.899C81.7286 84.418 84.7537 83.096 84.7537 83.096C84.7537 83.096 96.6714 87.2031 102.7 86.0123C108.728 84.8214 111.597 82.8092 111.597 82.8092C111.597 82.8092 114.874 84.4229 119.591 81.633C124.309 78.8431 126.01 74.5902 126.01 74.5902C126.01 74.5902 119.196 74.4443 120.767 66.5218C122.338 58.5992 122.733 43.3422 115.125 34.0976C107.517 24.853 93.0041 20.0169 83.8205 26.7632Z" stroke="#263238" stroke-linecap="round" stroke-linejoin="round"/>
<path d="M76.8983 92.4864C76.8983 92.4864 70.2407 91.8642 66.9162 96.0588C63.5917 100.253 47.6334 128.682 44.0268 134.456C40.4203 140.231 40.4203 150.457 47.0648 151.857C53.7094 153.257 60.085 144.868 62.88 140.979C64.2874 138.95 65.8173 137.03 67.4587 135.234C67.4587 135.234 66.2088 129.329 69.9542 119.851C73.6997 110.373 76.3384 102.917 77.584 98.8779C78.8296 94.8388 76.8983 92.4864 76.8983 92.4864Z" fill="white"/>
<mask id="mask1_215_1579" style="mask-type:luminance" maskUnits="userSpaceOnUse" x="41" y="92" width="38" height="61">
<path d="M76.8983 92.4864C76.8983 92.4864 70.2407 91.8642 66.9162 96.0588C63.5917 100.253 47.6334 128.682 44.0268 134.456C40.4203 140.231 40.4203 150.457 47.0648 151.857C53.7094 153.257 60.085 144.868 62.88 140.979C64.2874 138.95 65.8173 137.03 67.4587 135.234C67.4587 135.234 66.2088 129.329 69.9542 119.851C73.6997 110.373 76.3384 102.917 77.584 98.8779C78.8296 94.8388 76.8983 92.4864 76.8983 92.4864Z" fill="white"/>
</mask>
<g mask="url(#mask1_215_1579)">
<path opacity="0.1" d="M71.6686 115.442L73.652 100.375C73.652 100.375 58.7873 132.104 54.5818 138.7C52.0473 142.671 47.8938 147.891 46.5745 151.692C46.735 151.74 46.9 151.789 47.0692 151.823C53.7312 153.223 60.0894 144.834 62.8844 140.945C64.2918 138.915 65.8217 136.996 67.4631 135.2C67.4631 135.2 66.2132 129.295 69.9586 119.817C70.5606 118.307 71.1304 116.848 71.6686 115.442Z" fill="black"/>
</g>
<path d="M76.8983 92.4864C76.8983 92.4864 70.2407 91.8642 66.9162 96.0588C63.5917 100.253 47.6334 128.682 44.0268 134.456C40.4203 140.231 40.4203 150.457 47.0648 151.857C53.7094 153.257 60.085 144.868 62.88 140.979C64.2874 138.95 65.8173 137.03 67.4587 135.234C67.4587 135.234 66.2088 129.329 69.9542 119.851C73.6997 110.373 76.3384 102.917 77.584 98.8779C78.8296 94.8388 76.8983 92.4864 76.8983 92.4864Z" stroke="#263238" stroke-linecap="round" stroke-linejoin="round"/>
<path d="M86.3336 75.7081C86.3336 75.7081 87.1668 80.5248 86.0558 85.186C84.9447 89.8472 85.3614 89.8472 82.5838 91.0866C80.7588 91.8638 78.8418 92.3352 76.894 92.4864C76.894 92.4864 71.764 107.554 67.8797 114.704C63.9953 121.853 62.8843 129.771 64.4077 133.81C65.3946 136.343 66.7109 138.698 68.3137 140.799C68.3137 140.799 70.5315 149.655 69.2815 155.381C68.0316 161.106 64.9849 169.364 63.7349 181.793C62.485 194.221 63.1794 208.355 63.1794 208.355H135.997C135.997 208.355 135.858 192.665 134.33 179.771C132.802 166.876 131.001 165.816 128.523 158.044C126.045 150.272 125.745 149.966 125.745 144.532C125.745 139.098 127.134 124.488 126.718 114.704C126.301 104.919 124.222 97.3031 120.616 94.5035C117.009 91.7039 108.407 90.6151 105.217 88.1363C102.027 85.6574 103.967 69.8026 103.967 69.8026C103.967 69.8026 98.5595 73.691 94.1196 75.0859C91.5967 75.9331 88.938 76.1455 86.3336 75.7081Z" fill="white"/>
<mask id="mask2_215_1579" style="mask-type:luminance" maskUnits="userSpaceOnUse" x="62" y="69" width="74" height="140">
<path d="M86.3336 75.7081C86.3336 75.7081 87.1668 80.5248 86.0558 85.186C84.9447 89.8472 85.3614 89.8472 82.5838 91.0866C80.7588 91.8638 78.8418 92.3352 76.894 92.4864C76.894 92.4864 71.764 107.554 67.8797 114.704C63.9953 121.853 62.8843 129.771 64.4077 133.81C65.3946 136.343 66.7109 138.698 68.3137 140.799C68.3137 140.799 70.5315 149.655 69.2815 155.381C68.0316 161.106 64.9849 169.364 63.7349 181.793C62.485 194.221 63.1794 208.355 63.1794 208.355H135.997C135.997 208.355 135.858 192.665 134.33 179.771C132.802 166.876 131.001 165.816 128.523 158.044C126.045 150.272 125.745 149.966 125.745 144.532C125.745 139.098 127.134 124.488 126.718 114.704C126.301 104.919 124.222 97.3031 120.616 94.5035C117.009 91.7039 108.407 90.6151 105.217 88.1363C102.027 85.6574 103.967 69.8026 103.967 69.8026C103.967 69.8026 98.5595 73.691 94.1196 75.0859C91.5967 75.9331 88.938 76.1455 86.3336 75.7081Z" fill="white"/>
</mask>
<g mask="url(#mask2_215_1579)">
<path opacity="0.1" d="M99.4447 89.4146C104.141 92.4183 110.798 93.8181 117.43 92.8169C113.307 91.14 107.639 90.0561 105.182 88.1411C101.992 85.6574 103.932 69.8074 103.932 69.8074C101.52 71.5057 98.9873 72.9784 96.3589 74.211L96.6367 78.7167C96.6367 78.7167 93.5726 85.6234 99.4447 89.4146Z" fill="black"/>
<path opacity="0.1" d="M118.814 119.861C118.814 119.861 117.413 131.482 119.934 133.684C122.456 135.885 123.862 134.938 123.862 127.715C123.862 120.492 119.374 118.291 118.814 119.861Z" fill="black"/>
</g>
<path d="M86.3336 75.7081C86.3336 75.7081 87.1668 80.5248 86.0558 85.186C84.9447 89.8472 85.3614 89.8472 82.5838 91.0866C80.7588 91.8638 78.8418 92.3352 76.894 92.4864C76.894 92.4864 71.764 107.554 67.8797 114.704C63.9953 121.853 62.8843 129.771 64.4077 133.81C65.3946 136.343 66.7109 138.698 68.3137 140.799C68.3137 140.799 70.5315 149.655 69.2815 155.381C68.0316 161.106 64.9849 169.364 63.7349 181.793C62.485 194.221 63.1794 208.355 63.1794 208.355H135.997C135.997 208.355 135.858 192.665 134.33 179.771C132.802 166.876 131.001 165.816 128.523 158.044C126.045 150.272 125.745 149.966 125.745 144.532C125.745 139.098 127.134 124.488 126.718 114.704C126.301 104.919 124.222 97.3031 120.616 94.5035C117.009 91.7039 108.407 90.6151 105.217 88.1363C102.027 85.6574 103.967 69.8026 103.967 69.8026C103.967 69.8026 98.5595 73.691 94.1196 75.0859C91.5967 75.9331 88.938 76.1455 86.3336 75.7081Z" stroke="#263238" stroke-linecap="round" stroke-linejoin="round"/>
<path d="M86.5462 82.0072C89.1398 83.2938 92.0762 83.4104 94.7445 82.3329C96.5803 81.6087 101.012 78.0605 103.446 76.0434C103.607 72.612 103.95 69.8026 103.95 69.8026C103.95 69.8026 98.542 73.691 94.1022 75.0859C91.5849 75.9302 88.9323 76.1426 86.3335 75.7081C86.6399 77.7893 86.7115 79.9061 86.5462 82.0072Z" fill="#263238" stroke="#263238" stroke-linecap="round" stroke-linejoin="round"/>
<path d="M134.33 179.819C133.714 174.619 133.054 171.343 132.321 168.771C103.242 180.373 76.5249 175.09 65.2234 171.819C64.5603 175.126 64.059 178.472 63.7218 181.841C62.4718 194.269 63.1662 208.404 63.1662 208.404H135.997C135.997 208.404 135.858 192.69 134.33 179.819Z" fill="#263238" stroke="#263238" stroke-linecap="round" stroke-linejoin="round"/>
<path d="M100.1 206.766C100.1 206.766 106.363 190.921 117.46 184.582" stroke="#6E6E6E" stroke-linecap="round" stroke-linejoin="round"/>
<path d="M97.8779 204.501C99.0094 199.585 101.234 195.07 104.345 191.377" stroke="#6E6E6E" stroke-linecap="round" stroke-linejoin="round"/>
<path d="M71.6033 183.907C71.6033 183.907 75.2402 192.277 82.1105 197.03" stroke="#6E6E6E" stroke-linecap="round" stroke-linejoin="round"/>
<path d="M125.728 144.532C125.728 141.912 126.049 137.174 126.336 131.895C123.68 132.007 119.852 131.642 116.992 129.168C112.135 124.974 109.64 116.896 110.33 108.195C110.807 102.241 112.712 95.3395 113.867 91.5775C112.795 91.2372 111.501 90.8727 110.464 90.5373C109.861 93.0259 109.028 97.0649 107.556 101.828C105.061 109.906 100.612 120.468 91.6023 120.624C82.5924 120.779 75.5138 117.654 77.3105 108.798C78.6126 102.377 80.2922 95.1451 81.1124 91.6504C79.7362 92.0937 78.3222 92.3736 76.8939 92.4864C76.8939 92.4864 71.764 107.554 67.8796 114.704C63.9953 121.853 62.8842 129.771 64.4076 133.81C65.3945 136.343 66.7109 138.698 68.3136 140.799C68.3136 140.799 70.5314 149.655 69.2815 155.381C68.2181 160.29 65.8398 167.046 64.3902 176.616C68.1531 178.93 76.8114 182.935 92.6005 183.81C110.525 184.782 127.755 179.173 133.979 176.854C132.533 166.647 130.823 165.155 128.532 158.02C126.006 150.277 125.728 149.966 125.728 144.532Z" fill="#ED7A0D"/>
<mask id="mask3_215_1579" style="mask-type:luminance" maskUnits="userSpaceOnUse" x="63" y="90" width="71" height="94">
<path d="M125.728 144.532C125.728 141.912 126.049 137.174 126.336 131.895C123.68 132.007 119.852 131.642 116.992 129.168C112.135 124.974 109.64 116.896 110.33 108.195C110.807 102.241 112.712 95.3395 113.867 91.5775C112.795 91.2372 111.501 90.8727 110.464 90.5373C109.861 93.0259 109.028 97.0649 107.556 101.828C105.061 109.906 100.612 120.468 91.6023 120.624C82.5924 120.779 75.5138 117.654 77.3105 108.798C78.6126 102.377 80.2922 95.1451 81.1124 91.6504C79.7362 92.0937 78.3222 92.3736 76.8939 92.4864C76.8939 92.4864 71.764 107.554 67.8796 114.704C63.9953 121.853 62.8842 129.771 64.4076 133.81C65.3945 136.343 66.7109 138.698 68.3136 140.799C68.3136 140.799 70.5314 149.655 69.2815 155.381C68.2181 160.29 65.8398 167.046 64.3902 176.616C68.1531 178.93 76.8114 182.935 92.6005 183.81C110.525 184.782 127.755 179.173 133.979 176.854C132.533 166.647 130.823 165.155 128.532 158.02C126.006 150.277 125.728 149.966 125.728 144.532Z" fill="white"/>
</mask>
<g mask="url(#mask3_215_1579)">
<path opacity="0.1" d="M108.78 183.139C117.334 181.983 125.765 179.885 133.953 176.879C132.507 166.672 130.797 165.18 128.506 158.044C126.006 150.268 125.728 149.966 125.728 144.532C125.728 141.912 126.049 137.174 126.336 131.895C123.68 132.007 119.852 131.642 116.992 129.168C113.155 125.858 110.803 120.118 110.317 113.571C107.352 120.089 101.441 131.492 94.9616 135.122C85.6999 140.309 79.9146 137.392 72.1026 133.825C66.4605 131.249 64.7245 131.72 64.4424 133.898C65.4193 136.404 66.7192 138.736 68.3007 140.819C68.3007 140.819 68.7347 142.642 69.134 145.159C71.1 146.938 73.8299 148.756 77.6014 150.676C87.1495 155.536 103.06 158.453 111.454 163.96C119.847 169.466 113.19 174.978 109.136 181.783C108.908 182.19 108.785 182.659 108.78 183.139Z" fill="black"/>
</g>
<path d="M125.728 144.532C125.728 141.912 126.049 137.174 126.336 131.895C123.68 132.007 119.852 131.642 116.992 129.168C112.135 124.974 109.64 116.896 110.33 108.195C110.807 102.241 112.712 95.3395 113.867 91.5775C112.795 91.2372 111.501 90.8727 110.464 90.5373C109.861 93.0259 109.028 97.0649 107.556 101.828C105.061 109.906 100.612 120.468 91.6023 120.624C82.5924 120.779 75.5138 117.654 77.3105 108.798C78.6126 102.377 80.2922 95.1451 81.1124 91.6504C79.7362 92.0937 78.3222 92.3736 76.8939 92.4864C76.8939 92.4864 71.764 107.554 67.8796 114.704C63.9953 121.853 62.8842 129.771 64.4076 133.81C65.3945 136.343 66.7109 138.698 68.3136 140.799C68.3136 140.799 70.5314 149.655 69.2815 155.381C68.2181 160.29 65.8398 167.046 64.3902 176.616C68.1531 178.93 76.8114 182.935 92.6005 183.81C110.525 184.782 127.755 179.173 133.979 176.854C132.533 166.647 130.823 165.155 128.532 158.02C126.006 150.277 125.728 149.966 125.728 144.532Z" stroke="#263238" stroke-linecap="round" stroke-linejoin="round"/>
<path d="M71.0955 142.097C71.0955 142.097 74.0423 143.672 78.9075 143.672" stroke="#263238" stroke-linecap="round" stroke-linejoin="round"/>
<path d="M50.3067 87.0475C50.3067 87.0475 50.0593 84.802 49.8727 81.2441C49.6861 77.6863 49.4387 74.8818 50.962 74.5075C52.4854 74.1333 53.0496 75.815 53.0496 77.7835C53.0496 79.752 53.8872 84.0535 54.7856 86.9552C55.684 89.8569 56.6258 91.4511 55.2196 92.1996C53.8135 92.9481 50.7277 89.8569 50.3067 87.0475Z" fill="white" stroke="#263238" stroke-linecap="round" stroke-linejoin="round"/>
<path d="M79.9146 82.2745C79.9146 82.2745 77.2237 84.0681 76.8765 86.5809C76.5293 89.0938 77.7966 90.8873 81.3077 90.4207C84.8188 89.9541 84.6496 87.5044 84.6496 87.5044L79.9146 82.2745Z" fill="#A7C542" stroke="#263238" stroke-linecap="round" stroke-linejoin="round"/>
<path d="M81.6157 85.0402C81.6157 85.0402 79.4153 86.2115 78.786 87.5044C78.1567 88.7973 77.2149 89.852 79.4153 89.0306C81.6157 88.2092 82.4577 84.9381 81.6157 85.0402Z" fill="white" stroke="#263238" stroke-linecap="round" stroke-linejoin="round"/>
<path d="M77.5361 86.9843C74.9581 87.6843 73.5563 86.8094 72.1501 87.1593C71.8442 87.2385 71.5338 87.2974 71.2214 87.3343C69.2249 86.5615 67.5844 85.2589 65.8223 83.8445C65.1453 83.3001 64.4422 82.7363 63.6957 82.1871C59.2472 78.8965 51.9776 76.7725 51.6825 76.685C51.5605 76.6515 51.4316 76.6729 51.3236 76.7453C51.2155 76.8172 51.1374 76.9344 51.1061 77.0705C51.0749 77.2065 51.0927 77.3514 51.1556 77.4729C51.219 77.5949 51.3227 77.6838 51.4438 77.7203C51.5176 77.7203 58.8566 79.8832 63.1619 83.0668C63.891 83.6063 64.5898 84.1653 65.2581 84.7048C68.6607 87.4315 73.4825 90.411 77.7879 88.8605C77.8851 88.843 77.9749 88.792 78.0452 88.7142C78.1151 88.6369 78.1615 88.5368 78.1785 88.4279C78.8425 87.4704 77.5361 86.9843 77.5361 86.9843Z" fill="white" stroke="#263238" stroke-linecap="round" stroke-linejoin="round"/>
<path d="M78.005 87.6162C76.7038 88.1324 75.3037 88.2529 73.947 87.9662" stroke="#263238" stroke-linecap="round" stroke-linejoin="round"/>
<path d="M48.7401 87.2031C48.7401 87.2031 46.9346 89.225 47.3512 90.1534" stroke="#263238" stroke-linecap="round" stroke-linejoin="round"/>
<path d="M60.8183 96.3699L59.1517 94.1973C59.1517 94.1973 60.3495 88.423 60.9571 86.7365C61.2458 86.0127 61.4654 85.2564 61.6125 84.4812C62.0465 83.5091 62.2722 81.8079 61.6863 81.1518C61.1698 80.5734 60.5275 81.2782 60.3843 81.458H60.3625C60.4116 81.2816 60.422 81.0949 60.3938 80.9126C60.3656 80.7309 60.2992 80.5588 60.1998 80.4115C60.1008 80.2638 59.9719 80.1447 59.8235 80.064C59.6751 79.9828 59.5119 79.943 59.347 79.9464C58.0102 79.8492 56.8298 81.0497 56.8298 81.0497C56.8298 81.0497 56.5911 79.9464 55.8402 79.9464C55.0894 79.9464 53.5834 81.4434 52.9975 82.2843C52.9541 82.3475 52.915 82.4106 52.8716 82.4836C51.4655 83.9757 48.7529 87.2128 48.7529 87.2128C48.7529 87.2128 49.4473 83.9514 50.6929 82.5516C51.9385 81.1518 55.2717 78.5126 54.7162 77.2731C54.1606 76.0337 52.4984 77.2731 52.4984 77.2731C52.4984 77.2731 45.0075 81.7739 44.8686 83.6403C44.7297 85.5068 42.7854 93.4293 43.4798 94.207C44.1742 94.9847 53.4619 101.352 53.4619 101.352C53.4619 101.352 46.661 116.575 44.1655 123.258C41.67 129.941 39.1702 136.77 38.8924 142.831C38.6146 148.892 41.9304 153.398 47.6332 153.398C53.336 153.398 55.8185 149.048 56.6518 140.658C57.4851 132.269 61.504 107.097 61.7817 102.747C62.0595 98.3967 62.4718 98.5474 60.8183 96.3699Z" fill="white"/>
<mask id="mask4_215_1579" style="mask-type:luminance" maskUnits="userSpaceOnUse" x="38" y="76" width="25" height="78">
<path d="M60.8183 96.3699L59.1517 94.1973C59.1517 94.1973 60.3495 88.423 60.9571 86.7365C61.2458 86.0127 61.4654 85.2564 61.6125 84.4812C62.0465 83.5091 62.2722 81.8079 61.6863 81.1518C61.1698 80.5734 60.5275 81.2782 60.3843 81.458H60.3625C60.4116 81.2816 60.422 81.0949 60.3938 80.9126C60.3656 80.7309 60.2992 80.5588 60.1998 80.4115C60.1008 80.2638 59.9719 80.1447 59.8235 80.064C59.6751 79.9828 59.5119 79.943 59.347 79.9464C58.0102 79.8492 56.8298 81.0497 56.8298 81.0497C56.8298 81.0497 56.5911 79.9464 55.8402 79.9464C55.0894 79.9464 53.5834 81.4434 52.9975 82.2843C52.9541 82.3475 52.915 82.4106 52.8716 82.4836C51.4655 83.9757 48.7529 87.2128 48.7529 87.2128C48.7529 87.2128 49.4473 83.9514 50.6929 82.5516C51.9385 81.1518 55.2717 78.5126 54.7162 77.2731C54.1606 76.0337 52.4984 77.2731 52.4984 77.2731C52.4984 77.2731 45.0075 81.7739 44.8686 83.6403C44.7297 85.5068 42.7854 93.4293 43.4798 94.207C44.1742 94.9847 53.4619 101.352 53.4619 101.352C53.4619 101.352 46.661 116.575 44.1655 123.258C41.67 129.941 39.1702 136.77 38.8924 142.831C38.6146 148.892 41.9304 153.398 47.6332 153.398C53.336 153.398 55.8185 149.048 56.6518 140.658C57.4851 132.269 61.504 107.097 61.7817 102.747C62.0595 98.3967 62.4718 98.5474 60.8183 96.3699Z" fill="white"/>
</mask>
<g mask="url(#mask4_215_1579)">
<path opacity="0.1" d="M56.6475 140.649C57.4808 132.26 61.4997 107.087 61.7775 102.737C62.0552 98.387 62.4719 98.5425 60.8096 96.365L59.1431 94.1924C59.1431 94.1924 60.3409 88.4182 60.9485 86.7316C61.2371 86.0079 61.4567 85.2516 61.6039 84.4763C61.935 83.7006 62.07 82.8384 61.9945 81.9829L61.8773 82.1628C61.8773 82.1628 57.1032 93.7841 57.3897 95.9859C57.611 97.7308 47.3685 94.9118 43.4495 94.1584V94.1924C44.1439 94.9652 53.4316 101.337 53.4316 101.337C53.4316 101.337 58.2056 102.582 57.3636 107.607C56.5217 112.633 51.0359 144.221 47.0474 151.838C46.7791 152.345 46.471 152.825 46.1273 153.271C46.6164 153.347 47.1094 153.388 47.6029 153.393C53.3187 153.388 55.8142 149.038 56.6475 140.649Z" fill="black"/>
</g>
<path d="M60.8183 96.3699L59.1517 94.1973C59.1517 94.1973 60.3495 88.423 60.9571 86.7365C61.2458 86.0127 61.4654 85.2564 61.6125 84.4812C62.0465 83.5091 62.2722 81.8079 61.6863 81.1518C61.1698 80.5734 60.5275 81.2782 60.3843 81.458H60.3625C60.4116 81.2816 60.422 81.0949 60.3938 80.9126C60.3656 80.7309 60.2992 80.5588 60.1998 80.4115C60.1008 80.2638 59.9719 80.1447 59.8235 80.064C59.6751 79.9828 59.5119 79.943 59.347 79.9464C58.0102 79.8492 56.8298 81.0497 56.8298 81.0497C56.8298 81.0497 56.5911 79.9464 55.8402 79.9464C55.0894 79.9464 53.5834 81.4434 52.9975 82.2843C52.9541 82.3475 52.915 82.4106 52.8716 82.4836C51.4655 83.9757 48.7529 87.2128 48.7529 87.2128C48.7529 87.2128 49.4473 83.9514 50.6929 82.5516C51.9385 81.1518 55.2717 78.5126 54.7162 77.2731C54.1606 76.0337 52.4984 77.2731 52.4984 77.2731C52.4984 77.2731 45.0075 81.7739 44.8686 83.6403C44.7297 85.5068 42.7854 93.4293 43.4798 94.207C44.1742 94.9847 53.4619 101.352 53.4619 101.352C53.4619 101.352 46.661 116.575 44.1655 123.258C41.67 129.941 39.1702 136.77 38.8924 142.831C38.6146 148.892 41.9304 153.398 47.6332 153.398C53.336 153.398 55.8185 149.048 56.6518 140.658C57.4851 132.269 61.504 107.097 61.7817 102.747C62.0595 98.3967 62.4718 98.5474 60.8183 96.3699Z" stroke="#263238" stroke-linecap="round" stroke-linejoin="round"/>
<path d="M56.8169 81.04C56.8169 81.04 53.653 86.1143 52.9847 87.519C52.5446 88.6107 52.289 89.784 52.2295 90.9797" stroke="#263238" stroke-linecap="round" stroke-linejoin="round"/>
<path d="M56.0747 92.3843C56.1954 90.9578 56.5343 89.5652 57.0773 88.2675C57.9149 86.2067 60.3713 81.4629 60.3713 81.4629" stroke="#263238" stroke-linecap="round" stroke-linejoin="round"/>
<path d="M118.354 116.551C118.354 116.551 124.309 144.294 125.498 149.626C126.687 154.958 130.819 163.493 136.895 162.025C142.971 160.557 143.54 152.105 143.405 144.105C143.271 136.104 139.087 118.252 136.11 109.984C133.132 101.716 129.165 95.6117 123.697 93.8765C118.229 92.1413 115.121 92.6759 115.121 92.6759" fill="white"/>
<mask id="mask5_215_1579" style="mask-type:luminance" maskUnits="userSpaceOnUse" x="115" y="92" width="29" height="71">
<path d="M118.354 116.551C118.354 116.551 124.309 144.294 125.498 149.626C126.687 154.958 130.819 163.493 136.895 162.025C142.971 160.557 143.54 152.105 143.405 144.105C143.271 136.104 139.087 118.252 136.11 109.984C133.132 101.716 129.165 95.6117 123.697 93.8765C118.229 92.1413 115.121 92.6759 115.121 92.6759" fill="white"/>
</mask>
<g mask="url(#mask5_215_1579)">
<path opacity="0.1" d="M143.423 144.105C143.305 136.104 139.104 118.252 136.127 109.984C133.15 101.716 129.183 95.6117 123.714 93.8765C122.238 93.4036 120.732 93.0492 119.209 92.8169C121.518 93.9154 129.192 98.6495 133.679 114.524C139.009 133.368 142.359 147.502 136.765 154.098C133.831 157.549 131.123 157.728 128.302 156.761C130.333 160.207 133.267 162.9 136.895 162.025C142.967 160.557 143.54 152.115 143.423 144.105Z" fill="black"/>
</g>
<path d="M118.354 116.551C118.354 116.551 124.309 144.294 125.498 149.626C126.687 154.958 130.819 163.493 136.895 162.025C142.971 160.557 143.54 152.105 143.405 144.105C143.271 136.104 139.087 118.252 136.11 109.984C133.132 101.716 129.165 95.6117 123.697 93.8765C118.229 92.1413 115.121 92.6759 115.121 92.6759" stroke="#263238" stroke-linecap="round" stroke-linejoin="round"/>
<path d="M115.702 113.007L75.7046 113.717L80.956 129.197H81.0125C82.1799 133.086 88.2951 136.075 95.6688 136.075C102.769 136.075 108.689 133.314 110.173 129.625H110.269L115.702 113.007Z" fill="white" stroke="#263238" stroke-linecap="round" stroke-linejoin="round"/>
<path d="M95.6688 119.88C106.736 119.88 115.707 116.803 115.707 113.007C115.707 109.212 106.736 106.135 95.6688 106.135C84.6022 106.135 75.6309 109.212 75.6309 113.007C75.6309 116.803 84.6022 119.88 95.6688 119.88Z" fill="white" stroke="#263238" stroke-linecap="round" stroke-linejoin="round"/>
<path d="M95.6688 118.684C106.028 118.684 114.426 115.966 114.426 112.614C114.426 109.261 106.028 106.543 95.6688 106.543C85.3091 106.543 76.9111 109.261 76.9111 112.614C76.9111 115.966 85.3091 118.684 95.6688 118.684Z" fill="white" stroke="#263238" stroke-linecap="round" stroke-linejoin="round"/>
<mask id="mask6_215_1579" style="mask-type:luminance" maskUnits="userSpaceOnUse" x="75" y="100" width="42" height="19">
<path d="M116.588 100.832H75.9478V113.401H77.393C78.6473 116.317 86.3508 118.543 95.6776 118.543C104.492 118.543 111.857 116.546 113.697 113.872L114.131 113.313L115.98 112.278L116.588 100.832Z" fill="white"/>
</mask>
<g mask="url(#mask6_215_1579)">
<path d="M77.2151 112.57C77.2151 112.57 76.3471 109.041 76.9764 108.924C77.6057 108.808 78.6256 110.485 79.6369 109.352C80.6481 108.22 81.412 106.655 82.8051 106.796C84.1983 106.937 84.0724 108.643 84.9751 108.643C85.8779 108.643 87.0019 106.796 87.5097 108.784C88.0175 110.771 86.6417 113.751 85.7346 114.883C84.8276 116.016 82.8225 115.734 80.0362 115.734C77.2498 115.734 77.2151 112.57 77.2151 112.57Z" fill="#A7C542" stroke="#263238" stroke-linecap="round" stroke-linejoin="round"/>
<path d="M80.0188 115.734L79.1421 111.641" stroke="#263238" stroke-linecap="round" stroke-linejoin="round"/>
<path d="M81.3425 115.637L81.5552 108.939" stroke="#263238" stroke-linecap="round" stroke-linejoin="round"/>
<path d="M92.2535 109.056C92.2535 109.056 91.099 107.175 92.0452 105.882C92.9913 104.589 93.4079 105.649 95.1917 105.882C96.9754 106.115 96.7671 104.239 98.8634 104.944C100.96 105.649 101.615 107.398 102.223 107.398C102.83 107.398 104.215 106.455 105.473 107.884C106.732 109.313 106.415 110.12 107.044 110.12C107.674 110.12 108.62 109.177 108.828 110.825C109.036 112.473 108.394 113.527 107.361 113.527C106.328 113.527 104.423 111.53 102.431 111.763C100.439 111.996 99.701 112.939 98.2341 112.584C96.7671 112.23 96.6586 111.413 96.0293 111.175C95.4 110.937 93.4253 111.292 92.5573 110.689C91.6893 110.086 92.6614 109.041 92.6614 109.041L92.2535 109.056Z" fill="#A7C542" stroke="#263238" stroke-linecap="round" stroke-linejoin="round"/>
<path d="M97.6221 109.304C97.6221 109.304 96.4677 107.423 97.4138 106.13C98.3599 104.837 98.7766 105.896 100.56 106.13C102.344 106.363 102.136 104.487 104.232 105.192C106.328 105.896 106.962 107.661 107.591 107.661C108.221 107.661 109.583 106.718 110.842 108.147C112.101 109.576 111.788 110.383 112.417 110.383C113.047 110.383 113.988 109.44 114.201 111.087C114.414 112.735 113.767 113.79 112.73 113.79C111.693 113.79 109.792 111.792 107.8 112.025C105.807 112.259 105.074 113.202 103.603 112.847C102.131 112.492 102.032 111.676 101.402 111.437C100.773 111.199 98.7983 111.554 97.9303 110.951C97.0623 110.349 98.0344 109.304 98.0344 109.304H97.6221Z" fill="#A7C542" stroke="#263238" stroke-linecap="round" stroke-linejoin="round"/>
<path d="M108.307 108.468L107.361 113.522L109.158 113.858L110.824 109.527" fill="#A7C542"/>
<path d="M108.307 108.468L107.361 113.522L109.158 113.858L110.824 109.527" stroke="#263238" stroke-linecap="round" stroke-linejoin="round"/>
<path d="M103.06 106.825L103.268 109.527" stroke="#263238" stroke-linecap="round" stroke-linejoin="round"/>
<path d="M96.9754 112.696C96.9754 112.696 95.8209 110.82 96.7671 109.527C97.7132 108.234 98.1299 109.289 99.9136 109.527C101.697 109.765 101.485 107.879 103.585 108.584C105.686 109.289 106.311 111.053 106.94 111.053C107.569 111.053 108.937 110.115 110.195 111.539C111.454 112.964 111.137 113.77 111.766 113.77C112.396 113.77 113.342 112.832 113.55 114.475C113.758 116.118 113.116 117.178 112.083 117.178C111.05 117.178 109.145 115.18 107.153 115.413C105.161 115.647 104.423 116.589 102.956 116.239C101.489 115.89 101.381 115.063 100.751 114.83C100.122 114.597 98.1472 114.947 97.2792 114.344C96.4112 113.741 97.3877 112.696 97.3877 112.696H96.9754Z" fill="#A7C542" stroke="#263238" stroke-linecap="round" stroke-linejoin="round"/>
<path d="M97.7046 114.096C99.7682 114.096 101.441 112.906 101.441 111.437C101.441 109.969 99.7682 108.779 97.7046 108.779C95.6409 108.779 93.9678 109.969 93.9678 111.437C93.9678 112.906 95.6409 114.096 97.7046 114.096Z" fill="#808080" stroke="#263238" stroke-linecap="round" stroke-linejoin="round"/>
<path d="M97.622 110.966C97.622 110.966 96.589 109.576 96.8928 109.25C97.1966 108.924 98.6289 108.832 98.8025 109.308C98.9761 109.785 97.622 110.966 97.622 110.966Z" fill="white"/>
<path d="M97.1751 111.155C97.1751 111.155 95.0051 110.917 94.8055 110.553C94.6058 110.188 95.3653 109.313 96.0033 109.493C96.6413 109.673 97.1751 111.155 97.1751 111.155Z" fill="white"/>
<path d="M97.0882 111.51C97.0882 111.51 95.4346 112.55 94.9182 112.414C94.4017 112.278 93.9416 111.316 94.5493 111.083C95.1569 110.849 97.0882 111.51 97.0882 111.51Z" fill="white"/>
<path d="M97.4136 111.773C97.4136 111.773 97.47 113.343 96.9796 113.537C96.4892 113.731 95.1655 113.362 95.3043 112.881C95.4432 112.4 97.4136 111.773 97.4136 111.773Z" fill="white"/>
<path d="M97.9258 111.773C97.9258 111.773 99.6618 112.745 99.5533 113.139C99.4448 113.532 98.1992 114.013 97.7695 113.625C97.3398 113.236 97.9258 111.773 97.9258 111.773Z" fill="white"/>
<path d="M98.2512 111.505C98.2512 111.505 100.421 111.194 100.764 111.505C101.107 111.816 100.834 112.803 100.148 112.793C99.4621 112.784 98.2512 111.505 98.2512 111.505Z" fill="white"/>
<path d="M98.1428 111.151C98.1428 111.151 99.1975 109.77 99.7443 109.77C100.291 109.77 101.19 110.567 100.734 110.937C100.278 111.306 98.1428 111.151 98.1428 111.151Z" fill="white"/>
<path d="M108.615 116.448C110.679 116.448 112.352 115.258 112.352 113.79C112.352 112.321 110.679 111.131 108.615 111.131C106.552 111.131 104.879 112.321 104.879 113.79C104.879 115.258 106.552 116.448 108.615 116.448Z" fill="#808080" stroke="#263238" stroke-linecap="round" stroke-linejoin="round"/>
<path d="M108.533 113.313C108.533 113.313 107.5 111.928 107.804 111.603C108.108 111.277 109.54 111.185 109.713 111.656C109.887 112.128 108.533 113.313 108.533 113.313Z" fill="white"/>
<path d="M108.086 113.503C108.086 113.503 105.916 113.27 105.716 112.9C105.516 112.531 106.276 111.661 106.914 111.841C107.552 112.021 108.086 113.503 108.086 113.503Z" fill="white"/>
<path d="M107.999 113.858C107.999 113.858 106.341 114.898 105.829 114.767C105.317 114.636 104.853 113.663 105.46 113.43C106.068 113.197 107.999 113.858 107.999 113.858Z" fill="white"/>
<path d="M108.324 114.135C108.324 114.135 108.381 115.705 107.89 115.899C107.4 116.094 106.076 115.724 106.215 115.243C106.354 114.762 108.324 114.135 108.324 114.135Z" fill="white"/>
<path d="M108.837 114.135C108.837 114.135 110.573 115.107 110.464 115.496C110.356 115.885 109.11 116.371 108.68 115.982C108.251 115.593 108.837 114.135 108.837 114.135Z" fill="white"/>
<path d="M109.162 113.858C109.162 113.858 111.332 113.547 111.675 113.858C112.018 114.169 111.744 115.16 111.059 115.146C110.373 115.131 109.162 113.858 109.162 113.858Z" fill="white"/>
<path d="M109.071 113.503C109.071 113.503 110.126 112.123 110.673 112.123C111.219 112.123 112.118 112.92 111.662 113.284C111.206 113.649 109.071 113.503 109.071 113.503Z" fill="white"/>
<path d="M94.6707 111.865C94.6707 111.865 95.5821 108.336 94.9181 108.22C94.2541 108.103 93.1821 109.78 92.1492 108.647C91.1162 107.515 90.3307 105.94 88.8551 106.091C87.3795 106.242 87.5531 107.938 86.6156 107.938C85.6782 107.938 84.502 106.091 83.9725 108.079C83.443 110.067 84.897 113.046 85.8214 114.179C86.7458 115.311 88.8594 115.029 91.7586 115.029C94.6577 115.029 94.6707 111.865 94.6707 111.865Z" fill="#A7C542" stroke="#263238" stroke-linecap="round" stroke-linejoin="round"/>
<path d="M91.7585 115.029L92.6743 110.937" stroke="#263238" stroke-linecap="round" stroke-linejoin="round"/>
<path d="M90.3784 114.932L90.1614 108.234" stroke="#263238" stroke-linecap="round" stroke-linejoin="round"/>
<path d="M85.6435 116.798C87.7072 116.798 89.3803 115.608 89.3803 114.14C89.3803 112.671 87.7072 111.481 85.6435 111.481C83.5798 111.481 81.9067 112.671 81.9067 114.14C81.9067 115.608 83.5798 116.798 85.6435 116.798Z" fill="#808080" stroke="#263238" stroke-linecap="round" stroke-linejoin="round"/>
<path d="M85.5568 113.668C85.5568 113.668 84.5195 112.278 84.8233 111.953C85.1271 111.627 86.5593 111.535 86.7329 112.011C86.9065 112.487 85.5568 113.668 85.5568 113.668Z" fill="white"/>
<path d="M85.1226 113.853C85.1226 113.853 82.9526 113.62 82.753 113.255C82.5533 112.891 83.3128 112.016 83.9508 112.196C84.5888 112.375 85.1226 113.853 85.1226 113.853Z" fill="white"/>
<path d="M85.0228 114.203C85.0228 114.203 83.3692 115.243 82.8527 115.107C82.3363 114.971 81.8762 114.009 82.4838 113.775C83.0914 113.542 85.0228 114.203 85.0228 114.203Z" fill="white"/>
<path d="M85.3528 114.49C85.3528 114.49 85.4092 116.06 84.9188 116.254C84.4284 116.448 83.1047 116.079 83.2435 115.598C83.3824 115.117 85.3528 114.49 85.3528 114.49Z" fill="white"/>
<path d="M85.8605 114.485C85.8605 114.485 87.5965 115.457 87.488 115.851C87.3795 116.244 86.1339 116.726 85.7086 116.337C85.2833 115.948 85.8605 114.485 85.8605 114.485Z" fill="white"/>
<path d="M86.186 114.203C86.186 114.203 88.3561 113.892 88.6989 114.203C89.0418 114.514 88.7727 115.501 88.0826 115.491C87.3926 115.481 86.186 114.203 86.186 114.203Z" fill="white"/>
<path d="M86.095 113.853C86.095 113.853 87.1496 112.473 87.7008 112.473C88.252 112.473 89.146 113.27 88.686 113.639C88.2259 114.009 86.095 113.853 86.095 113.853Z" fill="white"/>
<path d="M86.9628 114.086C86.9628 114.086 88.6989 111.17 92.9868 110.684C92.9868 110.684 95.0874 111.389 94.2454 111.505C93.4035 111.622 90.2613 111.267 87.7354 114.208C85.2095 117.148 86.9628 114.086 86.9628 114.086Z" fill="white" stroke="#263238" stroke-linecap="round" stroke-linejoin="round"/>
<path d="M97.0405 115.122C97.0405 116.483 95.3695 117.591 93.3037 117.591C91.2378 117.591 89.5669 116.483 89.5669 115.122C89.5669 113.761 91.2378 112.657 93.3037 112.657C95.3695 112.657 97.0405 113.761 97.0405 115.122Z" fill="#808080" stroke="#263238" stroke-linecap="round" stroke-linejoin="round"/>
<path d="M93.2213 114.689C93.2213 114.689 92.1841 113.401 92.4879 113.1C92.7917 112.798 94.2239 112.716 94.3975 113.153C94.5711 113.591 93.2213 114.689 93.2213 114.689Z" fill="white"/>
<path d="M92.7699 114.859C92.7699 114.859 90.5999 114.64 90.4046 114.3C90.2093 113.96 90.9601 113.153 91.6024 113.328C92.2447 113.503 92.7699 114.859 92.7699 114.859Z" fill="white"/>
<path d="M92.6829 115.175C92.6829 115.175 91.0294 116.147 90.5129 116.016C89.9965 115.885 89.5364 114.995 90.1397 114.776C90.7429 114.558 92.6829 115.175 92.6829 115.175Z" fill="white"/>
<path d="M93.0128 115.447C93.0128 115.447 93.0692 116.905 92.5788 117.08C92.0884 117.255 90.769 116.92 90.9079 116.473C91.0468 116.026 93.0128 115.447 93.0128 115.447Z" fill="white"/>
<path d="M93.5206 115.442C93.5206 115.442 95.2566 116.351 95.1524 116.706C95.0483 117.061 93.7983 117.518 93.3687 117.163C92.939 116.808 93.5206 115.442 93.5206 115.442Z" fill="white"/>
<path d="M93.8462 115.175C93.8462 115.175 96.0162 114.888 96.3634 115.175C96.7106 115.462 96.4329 116.38 95.7428 116.371C95.0527 116.361 93.8462 115.175 93.8462 115.175Z" fill="white"/>
<path d="M93.7551 114.854C93.7551 114.854 94.8141 113.576 95.3609 113.581C95.9078 113.586 96.8062 114.32 96.3505 114.66C95.8948 115 93.7551 114.854 93.7551 114.854Z" fill="white"/>
<path d="M105.117 115.238C105.117 116.604 103.446 117.707 101.381 117.707C99.3147 117.707 97.6438 116.604 97.6438 115.238C97.6438 113.872 99.3191 112.774 101.381 112.774C103.442 112.774 105.117 113.877 105.117 115.238Z" fill="#808080" stroke="#263238" stroke-linecap="round" stroke-linejoin="round"/>
<path d="M101.298 114.801C101.298 114.801 100.261 113.513 100.569 113.216C100.877 112.92 102.305 112.827 102.479 113.265C102.652 113.702 101.298 114.801 101.298 114.801Z" fill="white"/>
<path d="M100.851 114.976C100.851 114.976 98.681 114.762 98.4814 114.417C98.2817 114.072 99.0369 113.27 99.6792 113.445C100.322 113.62 100.851 114.976 100.851 114.976Z" fill="white"/>
<path d="M100.747 115.306C100.747 115.306 99.089 116.278 98.5768 116.147C98.0647 116.016 97.6003 115.126 98.2079 114.908C98.8155 114.689 100.747 115.306 100.747 115.306Z" fill="white"/>
<path d="M101.09 115.564C101.09 115.564 101.146 117.022 100.656 117.197C100.165 117.372 98.8459 117.037 98.9848 116.589C99.1237 116.142 101.09 115.564 101.09 115.564Z" fill="white"/>
<path d="M101.615 115.564C101.615 115.564 103.351 116.468 103.247 116.828C103.143 117.187 101.893 117.634 101.463 117.28C101.033 116.925 101.615 115.564 101.615 115.564Z" fill="white"/>
<path d="M101.923 115.306C101.923 115.306 104.093 115.015 104.44 115.306C104.788 115.598 104.51 116.512 103.824 116.502C103.138 116.492 101.923 115.306 101.923 115.306Z" fill="white"/>
<path d="M101.836 114.976C101.836 114.976 102.891 113.693 103.438 113.697C103.984 113.702 104.883 114.436 104.427 114.776C103.971 115.117 101.836 114.976 101.836 114.976Z" fill="white"/>
<path d="M96.9321 111.505C96.9321 111.505 95.8384 114.781 91.724 116.317C91.724 116.317 89.554 116.157 90.3352 115.831C91.1164 115.506 94.2673 115.058 96.1335 111.564C97.9997 108.069 96.9321 111.505 96.9321 111.505Z" fill="white" stroke="#263238" stroke-linecap="round" stroke-linejoin="round"/>
<path d="M106.888 112.745C106.888 112.745 105.794 116.021 101.68 117.557C101.68 117.557 99.51 117.396 100.291 117.071C101.072 116.745 104.223 116.298 106.09 112.808C107.956 109.318 106.888 112.745 106.888 112.745Z" fill="white" stroke="#263238" stroke-linecap="round" stroke-linejoin="round"/>
<path d="M80.6307 116.575C80.6307 116.575 78.2176 115.165 80.1099 114.694C82.0021 114.222 82.9396 116.808 83.3606 115.52C83.7816 114.232 84.3675 113.479 85.6999 113.853C87.0323 114.227 85.6999 115.476 87.093 115.851C88.4862 116.225 87.2232 113.362 89.7491 114.791C92.275 116.22 91.5416 117.984 92.9087 118.101C94.2758 118.218 94.0588 115.282 95.8425 115.637C97.6263 115.992 96.7887 116.458 97.9431 116.691C99.0976 116.925 99.3059 115.637 100.46 116.458C101.615 117.28 102.348 118.101 102.978 117.634C103.607 117.168 103.412 116.575 104.553 116.342C105.694 116.108 105.812 115.637 106.649 114.461C107.487 113.284 108.75 114.947 110.008 114.947C111.267 114.947 111.371 114.947 112.001 113.537C112.174 113.135 112.441 112.792 112.773 112.544C113.105 112.296 113.49 112.152 113.888 112.128C113.888 112.128 114.939 113.299 113.576 114.708C112.213 116.118 106.858 119.409 102.665 119.88C98.4726 120.351 92.5919 120.935 87.4532 120.113C82.3146 119.292 80.6307 116.575 80.6307 116.575Z" fill="#A7C542" stroke="#263238" stroke-linecap="round" stroke-linejoin="round"/>
<path d="M99.5534 113.148C99.5534 113.148 101.289 110.232 105.577 109.746C105.577 109.746 107.678 110.451 106.836 110.567C105.994 110.684 102.852 110.334 100.326 113.27C97.8 116.205 99.5534 113.148 99.5534 113.148Z" fill="white" stroke="#263238" stroke-linecap="round" stroke-linejoin="round"/>
</g>
<path d="M90.0225 35.4051C90.0225 35.4051 80.1055 40.3628 78.7384 44.2901C77.3712 48.2173 78.1308 52.1543 76.9069 56.5967C75.683 61.0392 73.092 63.2604 75.0754 69.5839C77.0588 75.9073 83.9291 78.6389 86.6763 80.0096C89.2825 81.3127 92.2381 81.4347 94.9224 80.3498C97.5264 79.3242 105.299 72.6605 105.299 72.6605C105.299 72.6605 106.063 73.8562 109.418 72.4904C112.773 71.1246 114.626 64.286 113.693 61.2093C112.76 58.1326 108.654 60.3539 108.654 60.3539C108.654 60.3539 88.8029 47.1966 90.0225 35.4051Z" fill="white"/>
<mask id="mask7_215_1579" style="mask-type:luminance" maskUnits="userSpaceOnUse" x="74" y="35" width="40" height="47">
<path d="M90.0225 35.4051C90.0225 35.4051 80.1055 40.3628 78.7384 44.2901C77.3712 48.2173 78.1308 52.1543 76.9069 56.5967C75.683 61.0392 73.092 63.2604 75.0754 69.5839C77.0588 75.9073 83.9291 78.6389 86.6763 80.0096C89.2825 81.3127 92.2381 81.4347 94.9224 80.3498C97.5264 79.3242 105.299 72.6605 105.299 72.6605C105.299 72.6605 106.063 73.8562 109.418 72.4904C112.773 71.1246 114.626 64.286 113.693 61.2093C112.76 58.1326 108.654 60.3539 108.654 60.3539C108.654 60.3539 88.8029 47.1966 90.0225 35.4051Z" fill="white"/>
</mask>
<g mask="url(#mask7_215_1579)">
<path opacity="0.1" d="M108.637 60.3539C105.255 58.0272 102.05 55.3918 99.0542 52.475C99.8831 55.9114 101.571 63.7805 101.142 69.2874C100.582 76.51 94.6924 79.3388 89.6449 79.9804C88.9679 80.063 88.638 80.3352 88.5686 80.7387C90.6688 81.3078 92.8713 81.1761 94.9051 80.3595C97.5091 79.334 105.282 72.6703 105.282 72.6703C105.282 72.6703 106.046 73.8659 109.401 72.5002C112.756 71.1344 114.609 64.2957 113.676 61.219C112.743 58.1423 108.637 60.3539 108.637 60.3539Z" fill="black"/>
</g>
<path d="M90.0225 35.4051C90.0225 35.4051 80.1055 40.3628 78.7384 44.2901C77.3712 48.2173 78.1308 52.1543 76.9069 56.5967C75.683 61.0392 73.092 63.2604 75.0754 69.5839C77.0588 75.9073 83.9291 78.6389 86.6763 80.0096C89.2825 81.3127 92.2381 81.4347 94.9224 80.3498C97.5264 79.3242 105.299 72.6605 105.299 72.6605C105.299 72.6605 106.063 73.8562 109.418 72.4904C112.773 71.1246 114.626 64.286 113.693 61.2093C112.76 58.1326 108.654 60.3539 108.654 60.3539C108.654 60.3539 88.8029 47.1966 90.0225 35.4051Z" stroke="#263238" stroke-linecap="round" stroke-linejoin="round"/>
<path d="M86.0558 54.0304C85.8366 55.2927 85.2451 56.4363 84.3762 57.2772C83.0047 58.4729 81.9371 59.3283 83.3085 60.6795C84.68 62.0307 85.752 61.5301 85.752 61.5301" stroke="#263238" stroke-linecap="round" stroke-linejoin="round"/>
<path d="M84.2241 66.167C84.2241 66.167 86.6676 68.0431 90.1743 65.3115" stroke="#263238" stroke-linecap="round" stroke-linejoin="round"/>
<path d="M89.8707 63.9457C89.8707 63.9457 89.5669 64.7963 90.9383 66.3371" stroke="#263238" stroke-linecap="round" stroke-linejoin="round"/>
<path d="M79.6455 54.2005C80.2835 53.7208 81.0404 53.4792 81.8086 53.5108C82.5763 53.5424 83.3155 53.8447 83.9205 54.3755" stroke="#263238" stroke-linecap="round" stroke-linejoin="round"/>
<path d="M90.3306 54.7157C90.3306 54.7157 92.1621 52.8347 94.9093 55.056" stroke="#263238" stroke-linecap="round" stroke-linejoin="round"/>
<path d="M79.7974 49.4178C79.7974 49.4178 81.937 46.3411 84.6799 47.7069" stroke="#263238" stroke-width="3" stroke-linecap="round" stroke-linejoin="round"/>
<path d="M88.803 47.8819C88.803 47.8819 91.7021 46.0009 94.2975 49.4178" stroke="#263238" stroke-width="3" stroke-linecap="round" stroke-linejoin="round"/>
<path d="M139.551 152.027C138.396 149.841 136.825 147.968 134.949 146.54C133.074 145.112 130.941 144.164 128.701 143.764C120.963 142.306 113.697 142.029 111.076 140.561C108.455 139.093 107.148 135.895 105.716 133.757C104.03 131.449 102.019 129.466 99.7615 127.885C97.9777 126.685 97.0229 127.623 97.3788 128.954C97.7347 130.286 99.0497 131.088 99.9828 132.687C100.597 133.796 101.037 135.014 101.285 136.289C101.285 136.289 99.0237 136.687 94.3755 133.091C89.7273 129.494 86.2813 126.952 85.8039 128.152C85.5183 128.815 85.4345 129.565 85.5652 130.286C85.5652 130.286 83.2997 128.687 82.9611 130.422C82.6226 132.158 85.461 135.769 85.461 135.769C85.461 135.769 86.2986 137.105 87.605 138.972C89.3393 141.635 91.8309 143.559 94.6706 144.425C98.6027 145.757 101.936 146.958 104.08 148.027C106.224 149.096 119.322 159.896 127.781 162.832C136.24 165.768 140.167 161.763 141.712 158.428C142.646 156.323 143.019 153.96 142.784 151.624" fill="white"/>
<mask id="mask8_215_1579" style="mask-type:luminance" maskUnits="userSpaceOnUse" x="82" y="127" width="61" height="37">
<path d="M139.551 152.027C138.396 149.841 136.825 147.968 134.949 146.54C133.074 145.112 130.941 144.164 128.701 143.764C120.963 142.306 113.697 142.029 111.076 140.561C108.455 139.093 107.148 135.895 105.716 133.757C104.03 131.449 102.019 129.466 99.7615 127.885C97.9777 126.685 97.0229 127.623 97.3788 128.954C97.7347 130.286 99.0497 131.088 99.9828 132.687C100.597 133.796 101.037 135.014 101.285 136.289C101.285 136.289 99.0237 136.687 94.3755 133.091C89.7273 129.494 86.2813 126.952 85.8039 128.152C85.5183 128.815 85.4345 129.565 85.5652 130.286C85.5652 130.286 83.2997 128.687 82.9611 130.422C82.6226 132.158 85.461 135.769 85.461 135.769C85.461 135.769 86.2986 137.105 87.605 138.972C89.3393 141.635 91.8309 143.559 94.6706 144.425C98.6027 145.757 101.936 146.958 104.08 148.027C106.224 149.096 119.322 159.896 127.781 162.832C136.24 165.768 140.167 161.763 141.712 158.428C142.646 156.323 143.019 153.96 142.784 151.624" fill="white"/>
</mask>
<g mask="url(#mask8_215_1579)">
<path opacity="0.1" d="M142.767 151.629L139.551 152.027C139.307 151.518 139.028 151.031 138.718 150.569C138.281 151.873 137.617 153.068 136.765 154.083C131.153 160.679 126.297 155.332 120.216 152.829C114.136 150.326 101.988 143.405 95.8164 143.721C94.7913 143.773 93.764 143.735 92.7437 143.609C93.3638 143.923 94.0014 144.191 94.6533 144.411C98.5854 145.743 101.919 146.943 104.062 148.012C106.206 149.082 119.305 159.882 127.763 162.817C136.222 165.753 140.15 161.748 141.695 158.414C142.626 156.314 142.998 153.959 142.767 151.629Z" fill="black"/>
</g>
<path d="M139.551 152.027C138.396 149.841 136.825 147.968 134.949 146.54C133.074 145.112 130.941 144.164 128.701 143.764C120.963 142.306 113.697 142.029 111.076 140.561C108.455 139.093 107.148 135.895 105.716 133.757C104.03 131.449 102.019 129.466 99.7615 127.885C97.9777 126.685 97.0229 127.623 97.3788 128.954C97.7347 130.286 99.0497 131.088 99.9828 132.687C100.597 133.796 101.037 135.014 101.285 136.289C101.285 136.289 99.0237 136.687 94.3755 133.091C89.7273 129.494 86.2813 126.952 85.8039 128.152C85.5183 128.815 85.4345 129.565 85.5652 130.286C85.5652 130.286 83.2997 128.687 82.9611 130.422C82.6226 132.158 85.461 135.769 85.461 135.769C85.461 135.769 86.2986 137.105 87.605 138.972C89.3393 141.635 91.8309 143.559 94.6706 144.425C98.6027 145.757 101.936 146.958 104.08 148.027C106.224 149.096 119.322 159.896 127.781 162.832C136.24 165.768 140.167 161.763 141.712 158.428C142.646 156.323 143.019 153.96 142.784 151.624" stroke="#263238" stroke-linecap="round" stroke-linejoin="round"/>
<path d="M85.6042 130.286C85.6042 130.286 90.6821 135.074 91.8366 136.221C92.6829 137 93.6316 137.628 94.6489 138.082" stroke="#263238" stroke-linecap="round" stroke-linejoin="round"/>
<path d="M84.0247 132.78C84.0247 132.78 88.8898 139.098 92.0928 140.663" stroke="#263238" stroke-linecap="round" stroke-linejoin="round"/>
</svg>
