<svg width="28" height="28" viewBox="0 0 28 28" fill="none" xmlns="http://www.w3.org/2000/svg">
<path fill-rule="evenodd" clip-rule="evenodd" d="M23.8027 15.8434C24.22 16.0651 24.5419 16.4151 24.7684 16.7651C25.2096 17.4884 25.1738 18.3751 24.7446 19.1568L23.91 20.5568C23.4688 21.3034 22.6461 21.7701 21.7996 21.7701C21.3823 21.7701 20.9173 21.6534 20.5358 21.4201C20.2258 21.2218 19.8681 21.1518 19.4866 21.1518C18.3062 21.1518 17.3166 22.1201 17.2809 23.2751C17.2809 24.6168 16.184 25.6668 14.8128 25.6668H13.1913C11.8083 25.6668 10.7114 24.6168 10.7114 23.2751C10.6875 22.1201 9.69794 21.1518 8.51758 21.1518C8.12413 21.1518 7.76644 21.2218 7.46837 21.4201C7.08684 21.6534 6.60993 21.7701 6.20455 21.7701C5.34611 21.7701 4.52343 21.3034 4.08229 20.5568L3.25961 19.1568C2.81847 18.3984 2.79462 17.4884 3.23577 16.7651C3.42653 16.4151 3.78422 16.0651 4.18959 15.8434C4.52343 15.6801 4.73804 15.4118 4.94073 15.0968C5.53687 14.0934 5.17919 12.7751 4.16575 12.1801C2.98539 11.5151 2.60385 10.0334 3.28346 8.87845L4.08229 7.50178C4.77381 6.34678 6.25224 5.93845 7.44453 6.61512C8.48181 7.17512 9.82909 6.80178 10.4372 5.81012C10.6279 5.48345 10.7352 5.13345 10.7114 4.78345C10.6875 4.32845 10.8187 3.89678 11.0452 3.54678C11.4864 2.82345 12.2852 2.35678 13.1556 2.33345H14.8367C15.719 2.33345 16.5178 2.82345 16.9589 3.54678C17.1736 3.89678 17.3166 4.32845 17.2809 4.78345C17.257 5.13345 17.3643 5.48345 17.5551 5.81012C18.1632 6.80178 19.5104 7.17512 20.5596 6.61512C21.74 5.93845 23.2304 6.34678 23.91 7.50178L24.7088 8.87845C25.4003 10.0334 25.0188 11.5151 23.8265 12.1801C22.8131 12.7751 22.4554 14.0934 23.0634 15.0968C23.2542 15.4118 23.4688 15.6801 23.8027 15.8434ZM10.628 14.0118C10.628 15.8434 12.1422 17.3018 14.0141 17.3018C15.8859 17.3018 17.3644 15.8434 17.3644 14.0118C17.3644 12.1801 15.8859 10.7101 14.0141 10.7101C12.1422 10.7101 10.628 12.1801 10.628 14.0118Z" fill="#FEC71C"/>
</svg>
